<svg xmlns="http://www.w3.org/2000/svg" xmlns:xlink="http://www.w3.org/1999/xlink" id="svg437" width="1024" height="1024" version="1.1"><defs id="defs1"><linearGradient id="lgBg2"><stop id="st8" offset="0" stop-color="#07f" stop-opacity="1"/><stop id="st9" offset="1" stop-color="#00e7cc" stop-opacity="1"/></linearGradient><linearGradient id="lgBg1"><stop id="st10" offset="0" stop-color="#00b5d7" stop-opacity="1"/><stop id="st11" offset="1" stop-color="#00b3df" stop-opacity="0"/></linearGradient><linearGradient id="linear-gradient" x1="3328.67" x2="3328.67" y1="1708.24" y2="1892.09" gradientUnits="userSpaceOnUse"><stop id="st0" offset=".34" stop-color="#4d85a5"/><stop id="st1" offset="1" stop-color="#76a3cb"/></linearGradient><linearGradient id="lg2" x1="3328.67" x2="3328.67" y1="1251.92" y2="1796.37" gradientUnits="userSpaceOnUse"><stop id="st2" offset=".29" stop-color="#609abf"/><stop id="st3" offset="1" stop-color="#85afd4"/></linearGradient><linearGradient id="lg3" x1="3328.67" x2="3328.67" y1="1093.92" y2="1561.25" gradientUnits="userSpaceOnUse"><stop id="st4" offset=".35" stop-color="#88a9c6"/><stop id="st5" offset="1" stop-color="#b4d0e3"/></linearGradient><linearGradient id="lg4" x1="3328.67" x2="3328.67" y1="986.67" y2="1304.33" gradientUnits="userSpaceOnUse"><stop id="st6" offset="0" stop-color="#e0f4f8"/><stop id="st7" offset="1" stop-color="#c2d4e2"/></linearGradient><linearGradient xlink:href="#linear-gradient" id="lg5" x1="3329.17" x2="3329.17" y1="1895.92" y2="2204.23"/><linearGradient xlink:href="#lg2" id="lg6" x1="3329.17" x2="3329.17" y1="1106.96" y2="2045.24"/><linearGradient xlink:href="#lg3" id="lg7" x1="3329.17" x2="3329.17" y1="858.38" y2="1649.87"/><linearGradient xlink:href="#lg4" id="lg8" x1="3329.17" x2="3329.17" y1="687.46" y2="1218.53"/><linearGradient xlink:href="#lgBg2" id="gradientBg2" x1="2551.18" x2="4150.53" y1="2300.87" y2="675.26" gradientUnits="userSpaceOnUse"/><linearGradient xlink:href="#lgBg1" id="gradientBg1" x1="2863.68" x2="4122.4" y1="753.99" y2="1831.51" gradientUnits="userSpaceOnUse"/><filter id="inGw1" width="1.35" height="1.37" x="-.17" y="-.18" color-interpolation-filters="sRGB"><feFlood id="fld" flood-color="#FFF" flood-opacity=".25" result="result1"/><feComposite id="comp1" in2="SourceGraphic" operator="out"/><feMorphology id="morph1" operator="dilate" radius=".1"/><feGaussianBlur id="gaus1" result="result2" stdDeviation="29.95"/><feComposite id="comp3" in2="SourceGraphic" operator="atop" result="result5"/><feFlood id="fld2" flood-opacity=".3" result="result3"/><feComposite id="comp4" in2="SourceGraphic" operator="in"/><feGaussianBlur id="gaus2" result="result4" stdDeviation="14.89"/><feMerge id="merge"><feMergeNode id="mergeN1" in="result4"/><feMergeNode id="mergeN2" in="result5"/></feMerge></filter><filter id="inGwS" width="2.06" height="1.71" x="-.53" y="-.36" color-interpolation-filters="sRGB"><feFlood id="fld3" flood-color="#FFF" flood-opacity=".3" result="result1"/><feComposite id="fld4" in2="SourceGraphic" operator="out"/><feMorphology id="morph" operator="dilate" radius=".1"/><feGaussianBlur id="gaus0" result="result2" stdDeviation="4"/><feComposite id="comp2" in2="SourceGraphic" operator="atop" result="result5"/><feFlood id="fld5" flood-opacity=".2" result="result3"/><feComposite id="comp5" in2="SourceGraphic" operator="in"/><feGaussianBlur id="gaus3" result="result4" stdDeviation="15.73"/><feMerge id="merge2"><feMergeNode id="mergeN3" in="result4"/><feMergeNode id="mergeN4" in="result5"/></feMerge></filter></defs><rect id="bg2" width="1960.01" height="1962.22" x="2348.92" y="452.99" fill="url(#gradientBg1)" fill-opacity="1" stroke="#000" stroke-dasharray="none" stroke-linejoin="round" stroke-width="0" display="inline" ry="273.01" transform="translate(-1210.6 -230.1) scale(.51746)"/><rect id="bg1" width="1960.01" height="1962.22" x="2348.92" y="452.99" fill="url(#gradientBg2)" fill-opacity="1" stroke="#000" stroke-dasharray="none" stroke-linejoin="round" stroke-width="0" display="inline" ry="273.01" transform="translate(-1210.6 -230.1) scale(.51746)"/><g id="logo" stroke-width="0" data-name="Layer 6" display="inline" transform="translate(-1210.6 -230.1) scale(.51746)"><path id="tr" fill="url(#lg5)" d="M3371.6 2202.73a603.86 603.86 0 0 1-84.86 0c-34.93-2.79-62.19-34.15-60.86-65.25 2.38-58.81 5.15-117.62 6.47-176.45.8-31.22 26.53-61.66 58.24-63.9a612.97 612.97 0 0 1 77.15 0c31.71 2.24 57.44 32.68 58.24 63.9 1.32 58.83 4.09 117.64 6.47 176.45 1.34 31.1-25.93 62.46-60.86 65.25z" display="inline" filter="url(#inGwS)"/><path id="l3" fill="url(#lg6)" d="M3251.82 1156.24c-129.96 247.66-266.91 500.17-413.24 711.33-38.21 54.31 3.9 135.4 76.11 147.15a2829.25 2829.25 0 0 0 828.96 0c72.21-11.75 114.32-92.84 76.11-147.15-146.32-211.16-283.28-463.66-413.24-711.33-34.41-65.7-120.29-65.7-154.7 0z" display="inline" filter="url(#inGw1)"/><path id="l2" fill="url(#lg7)" d="M3260.95 901.87c-108.38 206.5-222.52 416.74-344.46 593.08-33.7 47.95 3.42 119.43 67.12 129.74a2383.22 2383.22 0 0 0 691.11 0c63.7-10.32 100.82-81.8 67.12-129.74-121.94-176.34-236.09-386.58-344.46-593.08-30.35-57.98-106.09-57.98-136.43 0z" display="inline" filter="url(#inGw1)"/><path id="l1" fill="url(#lg8)" d="M3261.72 704.44c-72.75 138.42-149.09 277.86-230.47 397.54-33.34 47.8 3.25 118.2 66.39 128.01a1740.8 1740.8 0 0 0 463.05 0c63.14-9.82 99.73-80.22 66.39-128.01-81.38-119.68-157.71-259.13-230.47-397.54-30.03-57.56-104.87-57.56-134.9 0z" display="inline" filter="url(#inGw1)"/></g></svg>
